<svg width="70" height="70" viewBox="0 0 70 70" fill="none" xmlns="http://www.w3.org/2000/svg">
<path d="M38.5422 34.9092C38.3954 40.7492 41.8495 44.3809 44.2495 46.8485C44.3007 46.9011 44.3512 46.9529 44.401 47.0042C44.9485 47.5666 45.4194 48.0504 45.7995 48.4998C46.2206 48.9977 46.4535 49.3673 46.5503 49.6511C46.6291 49.8821 46.6113 50.024 46.5194 50.1851C46.3952 50.4029 46.0829 50.7328 45.3585 51.1498C44.0058 51.9283 41.9664 52.3213 39.5927 52.1669C37.2366 52.0138 34.6398 51.3257 32.2294 50.0457C27.4373 47.5011 23.4 42.6376 23.4 34.9343C23.4 27.2319 27.3617 22.5758 31.972 20.089C34.2942 18.8364 36.781 18.1373 39.0012 17.8965C41.2462 17.6531 43.1154 17.8883 44.2458 18.3944C44.8382 18.6596 45.0705 18.8888 45.1584 19.0258C45.2204 19.1224 45.2589 19.2426 45.2017 19.4968C45.1362 19.7879 44.959 20.1763 44.6343 20.7064C44.3213 21.2173 43.9189 21.7858 43.4459 22.454L43.4134 22.4999C41.4908 25.2161 38.6858 29.1933 38.5422 34.9092Z" stroke="#1F1F1F" stroke-width="2"/>
</svg>
