<svg viewBox="0 0 26 38" fill="none" stroke="#1F1F1F" stroke-width="2" xmlns="http://www.w3.org/2000/svg">
<path d="M16.5422 18.9092C16.3954 24.7492 19.8495 28.3809 22.2495 30.8485C22.3007 30.901 22.3512 30.9529 22.401 31.0042C22.9485 31.5665 23.4194 32.0503 23.7995 32.4997C24.2206 32.9977 24.4535 33.3673 24.5503 33.6511C24.6291 33.8821 24.6113 34.024 24.5194 34.1851C24.3952 34.4029 24.0829 34.7327 23.3585 35.1497C22.0058 35.9283 19.9664 36.3213 17.5927 36.1669C15.2366 36.0137 12.6398 35.3257 10.2294 34.0457C5.4373 31.5011 1.39999 26.6376 1.39999 18.9343C1.39999 11.2319 5.36165 6.57575 9.97196 4.08898C12.2942 2.8364 14.781 2.13731 17.0012 1.89654C19.2462 1.65309 21.1154 1.88832 22.2458 2.39438C22.8382 2.65963 23.0705 2.88882 23.1584 3.02581C23.2204 3.12236 23.2589 3.24258 23.2017 3.49684C23.1362 3.78793 22.959 4.1763 22.6343 4.70642C22.3213 5.21734 21.9189 5.7858 21.4459 6.45396L21.4134 6.49993C19.4908 9.2161 16.6858 13.1933 16.5422 18.9092Z" />
</svg>
