<svg width="70" height="70" viewBox="0 0 70 70" fill="none" xmlns="http://www.w3.org/2000/svg">
<path d="M58.6594 49.9933H13.92C13.92 49.9933 1 50.6001 1 40.2855C1 29.9708 11.88 28.5989 11.88 28.5989C11.88 28.5989 8.48 23.2967 13.92 19.0495C19.36 14.8023 24.8 17.4048 24.8 17.4048C24.8 17.4048 29.0206 4.96695 43.84 8.69831C58.6594 12.4297 54.04 26.1113 54.04 26.1113C54.04 26.1113 69 27.4646 69 38.4652C69 49.4658 58.6594 49.9933 58.6594 49.9933Z" stroke="#1F1F1F" stroke-width="2"/>
<path d="M7 56H22.7073H35" stroke="#1F1F1F" stroke-width="2"/>
<path d="M17 44H21.7122H25.4" stroke="#1F1F1F" stroke-width="2"/>
<path d="M27 63H42.7073H55" stroke="#1F1F1F" stroke-width="2"/>
<path d="M41 56H50.4244H57.8" stroke="#1F1F1F" stroke-width="2"/>
<path d="M11 63H17.2829H22.2" stroke="#1F1F1F" stroke-width="2"/>
<path d="M28 44H42.1366H53.2" stroke="#1F1F1F" stroke-width="2"/>
</svg>
