<svg viewBox="0 0 70 57" fill="none" stroke="#1F1F1F" stroke-width="2" xmlns="http://www.w3.org/2000/svg">
<path d="M7 49H35M17 37H25.4M27 56H55M41 49H57.8M11 56H22.2M28 37H53.2M13.92 42.9933H58.6594C58.6594 42.9933 69 42.4658 69 31.4652C69 20.4646 54.04 19.1113 54.04 19.1113C54.04 19.1113 58.6594 5.42966 43.84 1.69831C29.0206 -2.03305 24.8 10.4048 24.8 10.4048C24.8 10.4048 19.36 7.80228 13.92 12.0495C8.48 16.2967 11.88 21.5989 11.88 21.5989C11.88 21.5989 1 22.9708 1 33.2855C1 43.6001 13.92 42.9933 13.92 42.9933Z" />
</svg>
