<svg viewBox="0 0 70 55" fill="none" stroke="#1F1F1F" stroke-width="2" xmlns="http://www.w3.org/2000/svg" >
<path d="M46 14.1834C50.9 -2.61661 67.7 0.883396 67 2.2834C66.3 3.6834 59.8833 9.2834 60.7 19.0834C61.5167 28.8834 69.1 30.9834 68.4 32.3834C67.7 33.7834 64.2 33.7834 64.2 33.7834M13.92 53.9933H58.6594C58.6594 53.9933 69 53.4658 69 42.4652C69 31.4646 54.04 30.1113 54.04 30.1113C54.04 30.1113 58.6594 16.4297 43.84 12.6983C29.0206 8.96695 24.8 21.4048 24.8 21.4048C24.8 21.4048 19.36 18.8023 13.92 23.0495C8.48 27.2967 11.88 32.5989 11.88 32.5989C11.88 32.5989 1 33.9708 1 44.2855C1 54.6001 13.92 53.9933 13.92 53.9933Z" />
</svg>
