<svg viewBox="0 0 70 63" fill="none" stroke="#1F1F1F" stroke-width="2" xmlns="http://www.w3.org/2000/svg">
<path d="M14.7315 30.9516C14.7315 30.9516 11.2315 20.4516 21.0315 15.5516C30.8315 10.6516 37.1315 19.7516 37.1315 19.7516M7 8L15 16M45 7L37 15M26 0V11M0 26H11M13.92 61.9933H58.6594C58.6594 61.9933 69 61.4658 69 50.4652C69 39.4646 54.04 38.1113 54.04 38.1113C54.04 38.1113 58.6594 24.4297 43.84 20.6983C29.0206 16.9669 24.8 29.4048 24.8 29.4048C24.8 29.4048 19.36 26.8023 13.92 31.0495C8.48 35.2967 11.88 40.5989 11.88 40.5989C11.88 40.5989 1 41.9708 1 52.2855C1 62.6001 13.92 61.9933 13.92 61.9933Z" />
</svg>
