<svg width="70" height="70" viewBox="0 0 70 70" fill="none" xmlns="http://www.w3.org/2000/svg">
<rect x="25" y="1" width="2" height="11" fill="#1F1F1F"/>
<rect x="6" y="9.41421" width="2" height="11" transform="rotate(-45 6 9.41421)" fill="#1F1F1F"/>
<rect y="28" width="2" height="11" transform="rotate(-90 0 28)" fill="#1F1F1F"/>
<rect x="38.4142" y="17.1924" width="2" height="11" transform="rotate(-135 38.4142 17.1924)" fill="#1F1F1F"/>
<path d="M58.6594 62.9933H13.92C13.92 62.9933 1 63.6001 1 53.2855C1 42.9708 11.88 41.5989 11.88 41.5989C11.88 41.5989 8.48 36.2967 13.92 32.0495C19.36 27.8023 24.8 30.4048 24.8 30.4048C24.8 30.4048 29.0206 17.9669 43.84 21.6983C58.6594 25.4297 54.04 39.1113 54.04 39.1113C54.04 39.1113 69 40.4646 69 51.4652C69 62.4658 58.6594 62.9933 58.6594 62.9933Z" stroke="#1F1F1F" stroke-width="2"/>
<path d="M14.7315 31.9516C14.7315 31.9516 11.2315 21.4516 21.0315 16.5516C30.8315 11.6516 37.1315 20.7516 37.1315 20.7516" stroke="#1F1F1F" stroke-width="2"/>
</svg>
