<svg width="70" height="70" viewBox="0 0 70 70" fill="none" xmlns="http://www.w3.org/2000/svg">
<path d="M58.6594 62.9933H13.92C13.92 62.9933 1 63.6001 1 53.2855C1 42.9708 11.88 41.5989 11.88 41.5989C11.88 41.5989 8.48 36.2967 13.92 32.0495C19.36 27.8023 24.8 30.4048 24.8 30.4048C24.8 30.4048 29.0206 17.9669 43.84 21.6983C58.6594 25.4297 54.04 39.1113 54.04 39.1113C54.04 39.1113 69 40.4646 69 51.4652C69 62.4658 58.6594 62.9933 58.6594 62.9933Z" stroke="#1F1F1F" stroke-width="2"/>
<path d="M46 23.1834C50.9 6.38339 67.7 9.8834 67 11.2834C66.3 12.6834 59.8833 18.2834 60.7 28.0834C61.5167 37.8834 69.1 39.9834 68.4 41.3834C67.7 42.7834 64.2 42.7834 64.2 42.7834" stroke="#1F1F1F" stroke-width="2"/>
</svg>
