<svg width="70" height="70" viewBox="0 0 70 70" fill="none" xmlns="http://www.w3.org/2000/svg">
<path d="M58.5 50C58.5 50 69 50.6354 69 38.4652C69 26.2951 54.04 26.1113 54.04 26.1113C54.04 26.1113 58.6594 12.4297 43.84 8.69831C29.0206 4.96695 24.8 17.4048 24.8 17.4048C24.8 17.4048 19.36 14.8023 13.92 19.0495C8.48 23.2967 11.88 28.5989 11.88 28.5989C11.88 28.5989 1 29.9708 1 40.2855C1 50.6001 13.92 49.9933 13.92 49.9933H16.64" stroke="#1F1F1F" stroke-width="2"/>
<path d="M32.7257 41.6218L31.8 39.356L30.8743 41.6218L28.9436 46.3472L28.9396 46.3563C28.9329 46.3717 28.9236 46.3932 28.9121 46.4203C28.889 46.4745 28.8571 46.5515 28.8189 46.648C28.7426 46.8406 28.6406 47.1131 28.5347 47.4393C28.3258 48.0831 28.0886 48.9755 28.0198 49.8945C27.9527 50.7902 28.033 51.8691 28.6264 52.7494C29.2665 53.6988 30.3488 54.2 31.8 54.2C33.2512 54.2 34.3335 53.6988 34.9736 52.7494C35.567 51.8691 35.6473 50.7902 35.5802 49.8945C35.5114 48.9755 35.2742 48.0831 35.0653 47.4393C34.9594 47.1131 34.8574 46.8406 34.7811 46.648C34.7429 46.5515 34.711 46.4745 34.6879 46.4203C34.6764 46.3932 34.6671 46.3717 34.6604 46.3563L34.6564 46.3472L32.7257 41.6218Z" stroke="#1F1F1F" stroke-width="2"/>
<path d="M15.9979 56.5598L15.1 54.7284L14.2021 56.5598L12.7569 59.5074L12.7564 59.5084C12.7506 59.5195 12.7428 59.5345 12.7334 59.553C12.7145 59.5901 12.6888 59.6417 12.6583 59.7059C12.5975 59.8339 12.5166 60.0139 12.4326 60.2296C12.2689 60.6499 12.0741 61.2538 12.0168 61.8912C11.9608 62.5143 12.0233 63.3292 12.5643 63.9979C13.1277 64.6944 14.0169 65 15.1 65C16.1831 65 17.0723 64.6944 17.6357 63.9979C18.1767 63.3292 18.2392 62.5143 18.1832 61.8912C18.1259 61.2538 17.9311 60.6499 17.7674 60.2296C17.6834 60.0139 17.6025 59.8339 17.5417 59.7059C17.5112 59.6417 17.4855 59.5901 17.4666 59.553C17.4572 59.5345 17.4494 59.5195 17.4436 59.5084L17.4431 59.5074L15.9979 56.5598Z" stroke="#1F1F1F" stroke-width="2"/>
<path d="M46.0257 57.6218L45.1 55.356L44.1743 57.6218L42.7275 61.1628L42.7257 61.167C42.7202 61.1794 42.7129 61.1963 42.7039 61.2176C42.6859 61.2599 42.6612 61.3195 42.6317 61.394C42.5729 61.5424 42.4946 61.7518 42.4133 62.0023C42.2535 62.4946 42.0693 63.1851 42.0155 63.9022C41.9636 64.5959 42.0212 65.4729 42.5125 66.2018C43.0505 66.9998 43.9513 67.4 45.1 67.4C46.2487 67.4 47.1495 66.9998 47.6875 66.2018C48.1788 65.4729 48.2364 64.5959 48.1845 63.9022C48.1307 63.1851 47.9465 62.4946 47.7867 62.0023C47.7054 61.7518 47.6271 61.5424 47.5683 61.394C47.5388 61.3195 47.5141 61.2599 47.4961 61.2176C47.4871 61.1963 47.4798 61.1794 47.4743 61.167L47.4725 61.1628L46.0257 57.6218Z" stroke="#1F1F1F" stroke-width="2"/>
<rect x="16" y="49" width="11" height="2" fill="#1F1F1F"/>
<rect x="36" y="49" width="18" height="2" fill="#1F1F1F"/>
<path d="M54 49H59V50V51H54V49Z" fill="#1F1F1F"/>
</svg>
