<svg viewBox="0 0 70 63" fill="none" stroke="#1F1F1F" stroke-width="2" xmlns="http://www.w3.org/2000/svg">
<path d="M58.5 43C58.5 43 69 43.6354 69 31.4652C69 19.2951 54.04 19.1113 54.04 19.1113C54.04 19.1113 58.6594 5.42966 43.84 1.69831C29.0206 -2.03305 24.8 10.4048 24.8 10.4048C24.8 10.4048 19.36 7.80228 13.92 12.0495C8.48 16.2967 11.88 21.5989 11.88 21.5989C11.88 21.5989 1 22.9708 1 33.2855C1 43.6001 13.92 42.9933 13.92 42.9933L16 43M59 43H36.5M15.5 43H28M19 48L16.9257 52.6538C16.9257 52.6538 13.8143 59 19 59C24.1857 59 21.0743 52.6538 21.0743 52.6538L19 48ZM47.5 50L45.08 55.0769C45.08 55.0769 41.45 62 47.5 62C53.55 62 49.92 55.0769 49.92 55.0769L47.5 50ZM32 32L29.2343 38.7692C29.2343 38.7692 25.0857 48 32 48C38.9143 48 34.7657 38.7692 34.7657 38.7692L32 32Z" />
</svg>
