<svg width="70" height="70" viewBox="0 0 70 70" fill="none" xmlns="http://www.w3.org/2000/svg">
<path d="M35.5 49.9933H58.6594C58.6594 49.9933 69 49.4658 69 38.4652C69 27.4646 54.04 26.1113 54.04 26.1113C54.04 26.1113 58.6594 12.4297 43.84 8.69831C29.0206 4.96695 24.8 17.4048 24.8 17.4048C24.8 17.4048 19.36 14.8023 13.92 19.0495C8.48 23.2967 11.88 28.5989 11.88 28.5989C11.88 28.5989 1 29.9708 1 40.2855C1 50.6001 13.92 49.9933 13.92 49.9933H28" stroke="#1F1F1F" stroke-width="2"/>
<path d="M32.7257 41.6218L31.8 39.356L30.8743 41.6218L28.9436 46.3472L28.9396 46.3563C28.9329 46.3717 28.9236 46.3932 28.9121 46.4203C28.889 46.4745 28.8571 46.5515 28.8189 46.648C28.7426 46.8406 28.6406 47.1131 28.5347 47.4393C28.3258 48.0831 28.0886 48.9755 28.0198 49.8945C27.9527 50.7902 28.033 51.8691 28.6264 52.7494C29.2665 53.6988 30.3488 54.2 31.8 54.2C33.2512 54.2 34.3335 53.6988 34.9736 52.7494C35.567 51.8691 35.6473 50.7902 35.5802 49.8945C35.5114 48.9755 35.2742 48.0831 35.0653 47.4393C34.9594 47.1131 34.8574 46.8406 34.7811 46.648C34.7429 46.5515 34.711 46.4745 34.6879 46.4203C34.6764 46.3932 34.6671 46.3717 34.6604 46.3563L34.6564 46.3472L32.7257 41.6218Z" stroke="#1F1F1F" stroke-width="2"/>
<path d="M17.6962 53H19.6962V65H17.6962V53Z" fill="#1F1F1F"/>
<path d="M13 56.866L14 55.134L24.3923 61.134L23.3923 62.866L13 56.866Z" fill="#1F1F1F"/>
<path d="M13 61.134L23.3923 55.134L24.3923 56.866L14 62.866L13 61.134Z" fill="#1F1F1F"/>
<path d="M44.6962 56H46.6962V68H44.6962V56Z" fill="#1F1F1F"/>
<path d="M40 59.866L41 58.134L51.3923 64.134L50.3923 65.866L40 59.866Z" fill="#1F1F1F"/>
<path d="M40 64.134L50.3923 58.134L51.3923 59.866L41 65.866L40 64.134Z" fill="#1F1F1F"/>
</svg>
