<svg viewBox="0 0 70 61" fill="none" stroke="#1F1F1F" stroke-width="2" xmlns="http://www.w3.org/2000/svg">
<path d="M35.5 42.9933H58.6594C58.6594 42.9933 69 42.4658 69 31.4652C69 20.4646 54.04 19.1113 54.04 19.1113C54.04 19.1113 58.6594 5.42966 43.84 1.69831C29.0206 -2.03305 24.8 10.4048 24.8 10.4048C24.8 10.4048 19.36 7.80228 13.92 12.0495C8.48 16.2967 11.88 21.5989 11.88 21.5989C11.88 21.5989 1 22.9708 1 33.2855C1 43.6001 13.92 42.9933 13.92 42.9933H28M19.1962 46V58M24.3923 49L14 55M14 49L24.3923 55M46.1962 49V61M51.3923 52L41 58M41 52L51.3923 58M31 32L28.2343 38.7692C28.2343 38.7692 24.0857 48 31 48C37.9143 48 33.7657 38.7692 33.7657 38.7692L31 32Z" />
</svg>
