<svg width="70" height="70" viewBox="0 0 70 70" fill="none" xmlns="http://www.w3.org/2000/svg">
<path d="M68.6 38.4652C68.6 49.4658 58.381 49.9933 58.381 49.9933H43H35.5H14.168C14.168 49.9933 1.39999 50.6001 1.39999 40.2855C1.39999 29.9708 12.152 28.5989 12.152 28.5989C12.152 28.5989 8.79199 23.2967 14.168 19.0495C19.544 14.8023 24.92 17.4048 24.92 17.4048C24.92 17.4048 29.091 4.96695 43.736 8.69831C58.381 12.4297 53.816 26.1113 53.816 26.1113C53.816 26.1113 68.6 27.4646 68.6 38.4652Z" stroke="#1F1F1F" stroke-width="2"/>
<path d="M28.6962 35H30.6962V47H28.6962V35Z" fill="#1F1F1F"/>
<path d="M24 38.866L25 37.134L35.3923 43.134L34.3923 44.866L24 38.866Z" fill="#1F1F1F"/>
<path d="M24 43.134L34.3923 37.134L35.3923 38.866L25 44.866L24 43.134Z" fill="#1F1F1F"/>
<path d="M17.6962 53H19.6962V65H17.6962V53Z" fill="#1F1F1F"/>
<path d="M13 56.866L14 55.134L24.3923 61.134L23.3923 62.866L13 56.866Z" fill="#1F1F1F"/>
<path d="M13 61.134L23.3923 55.134L24.3923 56.866L14 62.866L13 61.134Z" fill="#1F1F1F"/>
<path d="M44.6962 56H46.6962V68H44.6962V56Z" fill="#1F1F1F"/>
<path d="M40 59.866L41 58.134L51.3923 64.134L50.3923 65.866L40 59.866Z" fill="#1F1F1F"/>
<path d="M40 64.134L50.3923 58.134L51.3923 59.866L41 65.866L40 64.134Z" fill="#1F1F1F"/>
</svg>
