<svg viewBox="0 0 70 61" fill="none" stroke="#1F1F1F" stroke-width="2" xmlns="http://www.w3.org/2000/svg">
<path d="M30 28V40M35.1962 31L24.8038 37M24.8038 31L35.1962 37M18.1962 46V58M23.3923 49L13 55M13 49L23.3923 55M45.1962 49V61M50.3923 52L40 58M40 52L50.3923 58M58.381 42.9933C58.381 42.9933 68.6 42.4658 68.6 31.4652C68.6 20.4646 53.816 19.1113 53.816 19.1113C53.816 19.1113 58.381 5.42966 43.736 1.69831C29.091 -2.03305 24.92 10.4048 24.92 10.4048C24.92 10.4048 19.544 7.80228 14.168 12.0495C8.79199 16.2967 12.152 21.5989 12.152 21.5989C12.152 21.5989 1.39999 22.9708 1.39999 33.2855C1.39999 43.6001 14.168 42.9933 14.168 42.9933H58.381Z" />
</svg>
