<svg width="70" height="70" viewBox="0 0 70 70" fill="none" xmlns="http://www.w3.org/2000/svg">
<path d="M9.1 35C9.1 35 36.389 35 46.0439 35C55.6989 35 61.962 27.9035 58.1 20.3C54.238 12.6965 41.9144 15.2998 43.168 25.8535" stroke="#1F1F1F" stroke-width="2"/>
<path d="M16.8 39.2C16.8 39.2 31.5966 39.2 40.3005 39.2C49.0044 39.2 54.1863 44.8251 50.7047 50.2562C47.2231 55.6873 36.5777 53.2715 37.7079 45.7332" stroke="#1F1F1F" stroke-width="2"/>
<path d="M12.6 29.4C12.6 29.4 23.2536 29.4 29.5204 29.4C35.7872 29.4 39.5181 24.8999 37.0114 20.555C34.5047 16.2102 26.84 18.1428 27.6537 24.1734" stroke="#1F1F1F" stroke-width="2"/>
</svg>
